<?xml version="1.0" encoding="utf-8"?>
<!-- Generator: Adobe Illustrator 15.1.0, SVG Export Plug-In . SVG Version: 6.00 Build 0)  -->
<!DOCTYPE svg PUBLIC "-//W3C//DTD SVG 1.1//EN" "http://www.w3.org/Graphics/SVG/1.1/DTD/svg11.dtd">
<svg version="1.1" id="圖層_1" xmlns="http://www.w3.org/2000/svg" xmlns:xlink="http://www.w3.org/1999/xlink" x="0px" y="0px"
	 width="226.77px" height="226.77px" viewBox="0 0 226.77 226.77" enable-background="new 0 0 226.77 226.77" xml:space="preserve">
<path fill="#895336" d="M44.71,122.819c-0.78-0.099-1.559,0.581-1.559,1.362c-0.099,0.779,0.487,1.457,1.267,1.555
	c0.096,0,9.441,0.877,7.69,12.951c-0.098,0.778,0.485,1.557,1.266,1.652c0.777,0.1,1.558-0.389,1.655-1.266
	C57.168,123.99,44.71,122.819,44.71,122.819"/>
<path fill="#895336" d="M68.561,114.349c-0.778,0.194-1.266,0.974-1.169,1.749c0.195,0.783,0.876,1.271,1.752,1.17
	c0,0,9.25-1.751,10.903,10.418c0.097,0.779,0.779,1.267,1.655,1.168c0.78-0.096,1.363-0.781,1.17-1.557
	C80.925,112.109,68.561,114.349,68.561,114.349"/>
<path fill="#895336" d="M58.24,117.66c-0.778,0.191-1.265,0.973-1.072,1.752c0.196,0.775,0.975,1.264,1.754,1.069
	c0,0,9.152-2.63,11.779,9.349c0.194,0.777,0.973,1.264,1.753,1.167c0.778-0.196,1.265-0.976,1.071-1.755
	C70.215,114.252,58.24,117.66,58.24,117.66"/>
<path fill="#895336" d="M50.938,122.041c-0.777,0.189-1.264,0.971-1.07,1.752c0.196,0.778,1.07,1.264,1.852,1.066
	c0,0,9.051-2.53,11.777,9.447c0.197,0.775,0.976,1.266,1.753,1.068c0.78-0.191,1.267-0.975,1.072-1.752
	C63.011,118.633,50.938,122.041,50.938,122.041"/>
<path fill="#895336" d="M80.243,115.226c-0.778-0.099-1.559,0.387-1.654,1.165c-0.195,0.784,0.388,1.561,1.166,1.755
	c0.098,0,30.96,5.255,45.075,17.134c0.584,0.488,1.56,0.488,2.045-0.197c0.485-0.581,0.39-1.459-0.197-2.042
	C111.979,120.676,80.339,115.226,80.243,115.226"/>
<path fill="#895336" d="M89.979,114.834c-0.776-0.096-1.462,0.49-1.558,1.264c-0.194,0.88,0.39,1.563,1.168,1.658
	c0.099,0,31.25,3.797,45.851,14.99c0.683,0.486,1.56,0.39,2.045-0.287c0.485-0.587,0.39-1.561-0.29-2.049
	C122.007,118.729,90.074,114.933,89.979,114.834"/>
<path fill="#895336" d="M104.483,115.226c-0.879,0-1.558,0.678-1.558,1.459c0,0.778,0.583,1.461,1.46,1.461
	c0.098,0,31.347,1.071,46.924,10.9c0.683,0.394,1.558,0.196,2.045-0.485c0.39-0.678,0.195-1.557-0.487-1.947
	C136.612,116.295,104.483,115.226,104.483,115.226"/>
<path fill="#895336" d="M114.316,112.597c-0.779-0.099-1.462,0.584-1.462,1.365c0,0.776,0.586,1.458,1.363,1.458
	c0.099,0,31.444,1.072,47.021,10.9c0.683,0.488,1.558,0.197,1.946-0.484c0.485-0.684,0.294-1.558-0.389-1.947
	C146.54,113.57,114.413,112.597,114.316,112.597"/>
<path fill-rule="evenodd" clip-rule="evenodd" fill="#B2815D" d="M105.75,148.809c0,0,5.938,3.312,4.089,8.474
	c-1.948,5.157-19.18,8.079-32.809,4.184l-2.823-2.333l0.684-3.408L105.75,148.809z"/>
<path fill-rule="evenodd" clip-rule="evenodd" fill="#8D7162" d="M77.128,156.794c0,0,25.701-0.392,30.276-5.455
	c4.673-5.156-1.752-12.944-11.683-9.345c-9.831,3.506-21.32,11.001-21.32,11.001S74.207,157.376,77.128,156.794"/>
<path fill-rule="evenodd" clip-rule="evenodd" fill="#B2815D" d="M81.215,81.928c-18.787-1.848-56.464,4.578-60.162,40.697
	c-2.435,23.464,11.196,55.586,55.978,38.841c0,0,1.753-5.938-2.629-8.471c-33.975,3.407-36.411-39.036,10.807-34.266L81.215,81.928z
	"/>
<path fill-rule="evenodd" clip-rule="evenodd" fill="#8D7162" d="M77.128,156.794c-0.292-1.461-1.071-2.823-2.727-3.799
	c-33.975,3.407-36.411-39.033,10.807-34.266l-1.168-10.61l-5.938-7.889C22.61,93.028,20.467,176.362,77.128,156.794"/>
<path fill="#8D7162" d="M155.399,94.098c-0.778-0.094-1.461,0.488-1.56,1.368c0,0.776,0.584,1.456,1.363,1.456
	c0.196,0,59.873,3.898,63.182-31.639c0-0.779-0.581-1.461-1.36-1.557c-0.781-0.101-1.461,0.485-1.557,1.267
	C212.449,97.7,155.592,94.098,155.399,94.098"/>
<path fill="#895336" d="M157.151,96.63c-0.781-0.098-1.461,0.584-1.461,1.363c-0.099,0.778,0.584,1.461,1.365,1.555
	c23.851,1.074,37.087-6.327,42.931-15.673c3.601-5.741,4.381-12.167,3.115-17.91c-1.265-5.842-4.576-10.903-9.247-13.921
	c-6.037-3.797-14.116-4.279-22.979,1.656c-0.582,0.384-0.776,1.363-0.39,1.947c0.49,0.683,1.365,0.875,2.045,0.485
	c7.692-5.162,14.7-4.869,19.766-1.653c3.989,2.629,6.911,7.007,7.983,12.068c1.069,5.066,0.389,10.708-2.728,15.774
	C192.198,90.885,179.738,97.604,157.151,96.63"/>
<path fill-rule="evenodd" clip-rule="evenodd" fill="#8D7162" d="M76.153,88.256c0,0,1.753-9.247,17.038-9.053
	c15.188,0.099,62.499,10.223,70.581,13.047c8.079,2.826,5.647,10.417-3.8,13.923c-9.441,3.504-56.854,12.943-66.685,13.823
	c-9.833,0.971-16.354-0.393-17.912-10.125C73.72,100.137,76.153,88.256,76.153,88.256"/>
<path fill-rule="evenodd" clip-rule="evenodd" fill="#B2815D" d="M76.153,88.256c0,0,1.753-9.247,17.038-9.053
	c15.188,0.099,62.499,10.223,70.581,13.047c3.019,1.072,4.575,2.725,4.866,4.671c-27.746-3.312-77.883-4.378-93.458,11.585
	C74.014,99.065,76.153,88.256,76.153,88.256"/>
<path fill-rule="evenodd" clip-rule="evenodd" fill="#FFFFFF" d="M102.615,88.284c-4.869,0.781-8.178,5.352-7.398,10.22
	c0.777,4.772,5.354,8.082,10.22,7.3c4.869-0.778,8.081-5.354,7.302-10.124C111.959,90.814,107.483,87.505,102.615,88.284"/>
<path fill-rule="evenodd" clip-rule="evenodd" fill="#CAA682" d="M75.765,90.885c0.193-1.653,0.389-2.624,0.389-2.624
	s1.753-9.252,17.038-9.058c12.559,0.099,47.117,7.01,63.277,10.999c3.408,0.88,5.938,1.56,7.304,2.048
	c2.725,0.971,4.282,2.432,4.768,4.186c-0.875-0.877-1.946-1.851-3.696-2.237C138.461,88.65,84.817,75.313,75.765,90.885"/>
<path fill-rule="evenodd" clip-rule="evenodd" fill="#CAA682" d="M45.78,87.872c12.168-5.749,26.091-6.917,35.435-5.943
	c-4.379,2.629-5.062,6.328-5.062,6.328s-0.193,0.976-0.39,2.629c-0.583,3.797-1.458,11.097-0.583,17.622
	c0,0.488,0.097,0.973,0.195,1.365c0.681,4.38,2.336,7.009,4.768,8.567c-7.006-0.293-12.849,0.678-17.424,2.336
	C37.018,109.192,45.78,87.872,45.78,87.872"/>
<path fill-rule="evenodd" clip-rule="evenodd" fill="#CAA682" d="M24.264,109.677c5.063,17.038,28.428,17.907,28.428,17.907
	c-1.753,2.145-2.824,4.581-3.212,7.014c-19.958,10.42-28.038,1.658-28.038,1.658c-0.778-4.581-0.876-9.252-0.389-13.631
	C21.539,117.852,22.61,113.474,24.264,109.677"/>
<path fill-rule="evenodd" clip-rule="evenodd" fill="#CAA682" d="M30.885,156.695c13.533,1.459,20.054-13.24,20.054-13.24
	c1.559,2.922,4.09,5.452,7.692,7.207c0.486,12.07-7.496,15.377-7.496,15.377C42.275,165.266,35.655,161.762,30.885,156.695"/>
<path fill-rule="evenodd" clip-rule="evenodd" fill="#CAA682" d="M67.1,164.583c3.992-8.276-0.777-11.685-0.777-11.685
	c2.432,0.39,5.158,0.39,8.079,0.097c1.071,0.586,1.752,1.461,2.241,2.338c0.193,0.392,0.388,0.877,0.485,1.461
	c0.584,2.339-0.098,4.672-0.098,4.672C73.524,162.834,70.215,163.805,67.1,164.583"/>
<path fill-rule="evenodd" clip-rule="evenodd" fill="#B2815D" d="M74.891,99.939c-0.195,2.728-0.099,5.744,0.29,8.567
	c0,0.488,0.097,0.973,0.195,1.365c0.681,4.38,2.336,7.009,4.768,8.567h-1.167H78.88c-0.681-0.099-1.267-0.099-1.945,0h-1.853
	c-1.265,0.097-2.433,0.192-3.602,0.291c-1.654,0.194-3.31,0.487-4.77,0.874h-0.097c-0.488,0.1-0.975,0.297-1.364,0.393h-0.097
	c-0.39,0.096-0.875,0.293-1.266,0.389h-0.096c-0.393,0.197-0.686,0.291-1.072,0.39c-7.984-3.6-12.656-8.178-15.286-12.756
	C53.957,102.473,63.106,99.065,74.891,99.939"/>
<path fill-rule="evenodd" clip-rule="evenodd" fill="#B2815D" d="M37.115,123.691c7.691,3.605,15.576,3.893,15.576,3.893
	c-0.193,0.299-0.388,0.488-0.584,0.784c-0.192,0.294-0.388,0.584-0.582,0.778v0.096c-0.194,0.197-0.292,0.486-0.488,0.779
	c-0.194,0.296-0.293,0.584-0.391,0.877c-0.194,0.291-0.291,0.582-0.388,0.877c-0.098,0.294-0.292,0.584-0.292,0.875
	c-0.099,0.291-0.196,0.582-0.292,0.875c-0.098,0.293-0.098,0.586-0.195,0.875v0.101v0.097c-5.257,2.725-9.736,4.186-13.436,4.77
	C35.169,134.307,35.558,128.854,37.115,123.691"/>
<path fill-rule="evenodd" clip-rule="evenodd" fill="#B2815D" d="M43.151,153.096c5.257-3.893,7.787-9.641,7.787-9.641
	c0.099,0.197,0.196,0.392,0.294,0.586c0.485,0.779,1.069,1.557,1.655,2.24l0.097,0.096c0.195,0.194,0.389,0.485,0.584,0.683
	c0.485,0.485,0.972,0.877,1.557,1.365c0.196,0.191,0.487,0.384,0.779,0.581c0.291,0.197,0.585,0.39,0.877,0.584v0.099
	c0.291,0.096,0.68,0.291,0.972,0.485s0.584,0.293,0.877,0.488c0.194,3.698-0.488,6.62-1.462,8.857
	C51.329,158.741,46.655,156.504,43.151,153.096"/>
<path fill-rule="evenodd" clip-rule="evenodd" fill="#B2815D" d="M68.658,159.031c0.194-4.282-2.336-6.133-2.336-6.133l0.68,0.097
	c0.489,0.101,0.877,0.101,1.364,0.101h0.096c0.391,0.097,0.879,0.097,1.268,0.097h0.097h1.461c0.486,0,0.972,0,1.458-0.097h0.098
	c0.489,0,0.975,0,1.558-0.101l0.099,0.101h0.098v0.097h0.099h0.097v0.096h0.099v0.099h0.096l0.096,0.094h0.099v0.101h0.097v0.099
	h0.099v0.097h0.097v0.099h0.097l0.099,0.101l0.096,0.094v0.094h0.099v0.101h0.098v0.097h0.097v0.101h0.097v0.097v0.093h0.097v0.099
	h0.099v0.097l0.097,0.096v0.099l0.097,0.099l0.099,0.293h0.099v0.097v0.096h0.097v0.101v0.097v0.096h0.099v0.102v0.094l0.097,0.098
	v0.097v0.096l0.097,0.102v0.096v0.096v0.099C74.207,157.768,71.384,158.546,68.658,159.031"/>
<g>
	<polygon fill-rule="evenodd" clip-rule="evenodd" stroke="#000000" stroke-miterlimit="10" points="92.85,94.639 93.455,92.72 
		114.873,99.459 114.266,101.375 	"/>
	
		<rect x="102.858" y="85.82" transform="matrix(-0.8543 -0.5198 0.5198 -0.8543 142.1496 233.9386)" fill-rule="evenodd" clip-rule="evenodd" stroke="#000000" stroke-miterlimit="10" width="2.008" height="22.453"/>
</g>
</svg>
