<?xml version="1.0" encoding="utf-8"?>
<!-- Generator: Adobe Illustrator 15.1.0, SVG Export Plug-In . SVG Version: 6.00 Build 0)  -->
<!DOCTYPE svg PUBLIC "-//W3C//DTD SVG 1.1//EN" "http://www.w3.org/Graphics/SVG/1.1/DTD/svg11.dtd">
<svg version="1.1" id="圖層_1" xmlns="http://www.w3.org/2000/svg" xmlns:xlink="http://www.w3.org/1999/xlink" x="0px" y="0px"
	 width="226.77px" height="226.77px" viewBox="0 0 226.77 226.77" enable-background="new 0 0 226.77 226.77" xml:space="preserve">
<g>
	<g>
		<path fill="none" d="M35.953,133.924"/>
		<polygon fill="#FBDDB1" points="35.945,147.881 42.925,147.881 42.925,154.907 49.975,154.907 49.975,133.971 35.953,133.971 		
			"/>
		<polygon fill="#FBDDB1" points="56.878,154.93 49.975,154.93 49.975,168.911 56.855,168.911 56.855,175.934 70.933,175.934 
			70.933,182.842 161.789,182.842 161.789,175.91 175.815,175.91 175.815,168.908 182.795,168.908 182.795,154.93 189.793,154.93 
			189.793,147.928 196.822,147.928 196.822,133.924 182.771,133.924 182.771,147.879 175.839,147.879 175.839,126.919 
			168.838,126.919 168.838,119.896 175.842,119.896 175.842,112.918 168.813,112.918 168.813,105.916 161.811,105.916 
			161.811,98.866 147.832,98.866 147.832,84.932 140.783,84.932 140.783,98.869 112.939,98.869 112.939,84.958 105.845,84.958 
			105.845,98.912 98.869,98.912 98.869,105.895 84.889,105.895 84.889,112.918 77.907,112.918 77.907,119.896 63.882,119.896 
			63.882,126.898 56.925,126.898 		"/>
		<rect x="28.934" y="133.971" fill="#F0C084" width="7.012" height="14.807"/>
		<rect x="28.934" y="147.881" fill="#F0C084" width="13.991" height="7.026"/>
		<rect x="42.925" y="154.907" fill="#F0C084" width="7.05" height="14.004"/>
		<rect x="49.975" y="168.911" fill="#F0C084" width="6.881" height="7.022"/>
		<rect x="56.855" y="175.934" fill="#F0C084" width="14.077" height="6.908"/>
		<rect x="70.901" y="182.465" fill="#F0C084" width="90.965" height="7.093"/>
		<rect x="161.789" y="175.91" fill="#F0C084" width="14.024" height="6.584"/>
		<rect x="175.815" y="168.908" fill="#F0C084" width="6.979" height="7.002"/>
		<rect x="182.795" y="154.93" fill="#F0C084" width="6.998" height="13.979"/>
		<rect x="189.793" y="147.928" fill="#F0C084" width="7.029" height="7.002"/>
		<rect x="196.787" y="126.896" fill="#F0C084" width="6.996" height="21.136"/>
		<polygon fill="#5B3719" points="182.865,134.018 196.758,134.018 196.758,126.96 203.836,126.96 203.836,77.993 189.796,77.993 
			189.796,63.998 182.862,63.998 182.862,50.074 168.765,50.074 168.765,43.043 154.846,43.043 154.846,29.081 77.955,29.081 
			77.955,42.992 57.002,42.992 57.002,56.962 49.97,56.962 49.97,71.055 36.025,71.055 36.025,84.973 28.966,84.973 28.966,134.037 
			49.918,134.037 49.918,154.943 56.979,154.943 56.979,126.957 63.892,126.957 63.892,119.896 77.96,119.896 77.96,112.984 
			84.869,112.984 84.869,105.975 98.939,105.975 98.939,98.943 105.854,98.943 105.854,85.022 112.912,85.022 112.912,98.943 
			140.873,98.943 140.873,84.999 147.805,84.999 147.805,98.92 161.85,98.92 161.85,105.975 168.76,105.975 168.76,112.984 
			175.818,112.984 175.818,119.971 168.765,119.971 168.765,126.934 175.818,126.934 175.818,147.936 182.826,147.936 		"/>
	</g>
	<g>
		<ellipse fill="#F0908F" cx="72.64" cy="153.307" rx="8.903" ry="8.758"/>
		<ellipse fill="#F0908F" cx="163.431" cy="154.767" rx="8.903" ry="8.759"/>
		<ellipse cx="74.829" cy="134.525" rx="6.714" ry="7.199"/>
		<ellipse cx="160.073" cy="135.887" rx="6.715" ry="7.201"/>
		<ellipse fill="#FFFFFF" cx="162.593" cy="133.4" rx="2.379" ry="2.595"/>
		<ellipse fill="#FFFFFF" cx="76.742" cy="131.672" rx="2.379" ry="2.594"/>
		<g>
			<g>
				<path fill="#491F1F" d="M94.555,154.668h46.959c0,0,0.793,18.077-23.482,18.379C93.753,173.35,94.555,154.668,94.555,154.668z"
					/>
			</g>
			<g>
				<path fill="#BE4E43" d="M104.662,170.556c3.285,1.56,7.613,2.563,13.369,2.491c5.738-0.071,10.055-1.145,13.34-2.722
					c-1.15-6.333-6.68-11.138-13.332-11.138C111.297,159.188,105.713,164.109,104.662,170.556z"/>
			</g>
		</g>
	</g>
</g>
</svg>
